<?xml version="1.0" standalone="no"?>
<!DOCTYPE svg PUBLIC "-//W3C//DTD SVG 20010904//EN"
 "http://www.w3.org/TR/2001/REC-SVG-20010904/DTD/svg10.dtd">
<svg version="1.0" xmlns="http://www.w3.org/2000/svg"
 width="1000.000000pt" height="1000.000000pt" viewBox="0 0 1000.000000 1000.000000"
 preserveAspectRatio="xMidYMid meet">

<g transform="translate(0.000000,1000.000000) scale(0.100000,-0.100000)"
fill="#000000" stroke="none">
<path d="M3700 7686 c0 -2 110 -101 244 -220 135 -118 247 -223 250 -233 3
-10 35 -130 71 -268 36 -137 68 -258 71 -267 4 -12 -53 -66 -205 -197 l-210
-181 -285 -49 c-157 -28 -290 -52 -294 -55 -5 -3 -51 -63 -102 -133 -52 -70
-118 -160 -147 -200 l-53 -72 120 -102 c66 -56 120 -105 120 -109 0 -4 -52
-46 -115 -94 -114 -86 -115 -86 -490 -241 l-376 -155 -245 71 c-135 39 -247
69 -249 68 -2 -2 102 -73 231 -156 l235 -153 497 90 c273 49 497 88 498 87 1
-1 -25 -75 -57 -165 l-59 -162 145 -395 145 -395 -95 -368 c-52 -202 -99 -376
-104 -388 -5 -11 -170 -151 -368 -311 -197 -160 -369 -300 -383 -312 -17 -14
5 -7 70 22 198 92 905 430 916 438 6 5 87 119 179 254 93 135 171 245 175 245
4 0 76 -113 160 -250 85 -138 158 -254 164 -259 29 -23 1714 -777 1721 -769 1
2 -87 108 -196 236 l-199 232 220 260 c122 143 222 260 223 260 73 6 714 123
722 132 7 7 97 153 200 323 104 171 193 316 199 322 9 10 80 1 329 -43 l318
-55 252 -196 c139 -108 258 -201 266 -207 12 -8 13 -8 7 2 -26 44 -551 790
-564 803 -9 9 -118 58 -242 109 -124 51 -229 96 -234 101 -5 4 -41 83 -82 176
-48 110 -69 171 -63 178 5 6 69 53 141 105 72 52 131 99 131 103 -1 5 -73 112
-162 238 l-161 229 -70 287 c-39 159 -74 297 -78 307 -6 14 -69 40 -228 96
-206 73 -219 80 -216 102 1 12 41 184 88 382 l85 358 -63 189 c-34 104 -65
189 -68 189 -3 0 -30 -124 -60 -276 -30 -153 -59 -282 -65 -289 -5 -7 -88 -40
-184 -74 l-173 -61 -342 -45 c-344 -45 -783 -82 -797 -68 -4 4 -89 152 -189
328 -100 176 -187 325 -193 331 -7 6 -158 76 -337 154 -395 173 -390 171 -390
166z"/>
</g>
</svg>
