<?xml version="1.0" standalone="no"?>
<!DOCTYPE svg PUBLIC "-//W3C//DTD SVG 20010904//EN"
 "http://www.w3.org/TR/2001/REC-SVG-20010904/DTD/svg10.dtd">
<svg version="1.0" xmlns="http://www.w3.org/2000/svg"
 width="3000.000000pt" height="300.000000pt" viewBox="0 0 3000.000000 300.000000"
 preserveAspectRatio="xMidYMid meet">

<g transform="translate(0.000000,300.000000) scale(0.100000,-0.100000)"
fill="#000000" stroke="none">
<path d="M5722 2184 l-753 -94 -613 -185 -612 -184 -553 -36 -552 -36 -1067
-370 c-586 -203 -1069 -372 -1072 -375 -3 -3 11 -3 30 0 19 3 530 60 1135 126
l1101 120 714 -239 c393 -131 804 -271 913 -310 l198 -71 882 95 881 96 141
-141 142 -141 280 75 280 76 962 140 962 140 1370 -140 1370 -140 1129 160
1128 160 1034 -125 1033 -124 1086 -21 1087 -21 488 36 489 35 932 0 932 0
331 -160 331 -160 527 159 c422 128 696 202 1379 375 l852 216 816 -140 815
-140 1040 557 c572 306 1038 558 1037 560 -2 1 -490 -160 -1084 -358 l-1081
-360 -834 210 -833 210 -849 126 -848 125 -345 105 -344 105 -174 -155 -175
-156 -248 80 -248 81 -1024 30 -1025 31 -25 -29 c-14 -15 -64 -78 -112 -140
l-88 -111 -52 18 c-29 11 -185 67 -347 125 l-295 107 -830 -16 c-830 -15 -832
-16 -1493 -65 l-661 -50 -1051 125 -1050 125 -726 -155 -725 -155 -395 140
-395 140 -883 0 -882 0 -828 50 -827 50 -220 -65 -220 -65 -300 110 c-165 60
-308 109 -318 109 -9 -1 -356 -43 -770 -95z"/>
</g>
</svg>
