<svg id="Calque_1" data-name="Calque 1" xmlns="http://www.w3.org/2000/svg" viewBox="0 0 926.37 918.68"><defs><style>.cls-1{fill:#1d1d1b;}</style></defs><path class="cls-1" d="M953.91,450.12l7.69-22L948.42,369.9l-6.6-52.75-20.87-67-47.26-47.25L826.44,149,744,106.16,719.85,75.4l-47.26-22-79.12,4.39L570.4,45.73l-72.53,1.09L433,52.32,380.29,71l-40.66-7.69L290.18,86.38l-30.77,22-42.86,19.78-33,39.56-45.05,40.66L96.77,291.88l7.69,19.78L84.68,388.58,69.3,405.07,67.1,493,48.42,518.25,42.92,604l31.87,48.35L73.69,693l33,68.13,16.48,40.66,55,17.58,40.66,68.13,28.57-3.29,54.94,46.15,111,22,103.3-8.79,11,16.48,25.27,4.4,44-18.68h60.44l25.27-17.59,71.43-48.35,17.58,5.5,64.84-61.54,58.24-71.43,20.88-49.45,14.29,4.39,17.58-76.92L966,578.69l3.3-109.89ZM817.4,589l-3.9,57.41-12.7,12.87-43,82.15-63.49,53.45-25.4,8.91-59.58,15.84-34.19-5.94-20.52,18.81-19.53-2-17.58-22.77-80.1,8.91-73.26-7.92-37.12-26.72-23.44,3-28.33-50.49-34.19-12.86-17.58-64.34-3.91-34.65L190.3,573.2l-7.82-54.44,19.54-2,1-85.13-14.66-9.89,31.26-17.82,6.84-50.48-13.68-12.87,43-67.31,29.31-14.85,18.56-34.64,41-10.89,18.56-20.79,18.56-9.89,22.47,11.87,25.39-7.92H496l63.49-5.93L582,191.12l57.63-16.82,42,37.61,42,20.79,47.86,62.36,17.59,50.48,40,79.19L813.5,444.52,818.38,497,833,550.43Z" transform="translate(-42.92 -45.73)"/></svg>